<svg xmlns="http://www.w3.org/2000/svg" width="64" height="64" viewBox="0 0 64 64" fill="none">
  <defs>
    <linearGradient id="bg" x1="0" y1="0" x2="64" y2="64" gradientUnits="userSpaceOnUse">
      <stop offset="0" stop-color="#12121e"/>
      <stop offset="1" stop-color="#07070d"/>
    </linearGradient>
    <linearGradient id="fg" x1="8" y1="56" x2="56" y2="6" gradientUnits="userSpaceOnUse">
      <stop offset="0" stop-color="#22d3ee"/>
      <stop offset="0.55" stop-color="#818cf8"/>
      <stop offset="1" stop-color="#c084fc"/>
    </linearGradient>
  </defs>
  <rect width="64" height="64" rx="15" fill="url(#bg)"/>
  <g stroke="url(#fg)" stroke-width="2.6" stroke-linecap="round" stroke-linejoin="round">
    <path d="M32 9 C28.9 12.1 27.6 15.8 27.6 19.7 L27.6 28 H36.4 V19.7 C36.4 15.8 35.1 12.1 32 9 Z"/>
    <circle cx="32" cy="19.5" r="2" stroke-width="1.8"/>
    <path d="M27.6 23.5 L23.3 30 L27.6 28.3" stroke-width="2.1"/>
    <path d="M36.4 23.5 L40.7 30 L36.4 28.3" stroke-width="2.1"/>
    <path d="M32 31 V34.4" stroke-dasharray="1 3.2" stroke-width="2.2"/>
    <path d="M14.5 43 C20.4 39.6 28 40.2 32 44.7 C36 40.2 43.6 39.6 49.5 43 L45.7 51 C40.4 48.4 35.1 49.5 32 53.2 C28.9 49.5 23.6 48.4 18.3 51 Z"/>
    <path d="M32 44.9 V52.8" stroke-width="2" opacity="0.85"/>
  </g>
</svg>
